<svg xmlns="http://www.w3.org/2000/svg" xmlns:xlink="http://www.w3.org/1999/xlink" width="500" zoomAndPan="magnify" viewBox="0 0 375 374.999991" height="500" preserveAspectRatio="xMidYMid meet" version="1.2"><defs><clipPath id="90f7e88e12"><path d="M 0 70.3125 L 317 70.3125 L 317 305 L 0 305 Z M 0 70.3125 "/></clipPath></defs><g id="ed46ea9bda"><path style=" stroke:none;fill-rule:nonzero;fill:#ffffff;fill-opacity:1;" d="M 134.765625 246.09375 C 131.542969 246.09375 128.90625 248.730469 128.90625 251.953125 C 128.90625 255.175781 131.542969 257.8125 134.765625 257.8125 L 181.640625 257.8125 C 184.863281 257.8125 187.5 255.175781 187.5 251.953125 C 187.5 248.730469 184.863281 246.09375 181.640625 246.09375 Z M 134.765625 246.09375 "/><path style=" stroke:none;fill-rule:nonzero;fill:#ffffff;fill-opacity:1;" d="M 53.027344 250.195312 C 53.027344 250.523438 52.996094 250.847656 52.933594 251.167969 C 52.867188 251.488281 52.773438 251.800781 52.648438 252.101562 C 52.523438 252.402344 52.371094 252.691406 52.1875 252.960938 C 52.007812 253.234375 51.800781 253.484375 51.570312 253.71875 C 51.335938 253.949219 51.085938 254.15625 50.8125 254.335938 C 50.542969 254.519531 50.253906 254.671875 49.953125 254.796875 C 49.652344 254.921875 49.339844 255.015625 49.019531 255.078125 C 48.699219 255.144531 48.375 255.175781 48.046875 255.175781 C 47.71875 255.175781 47.394531 255.144531 47.074219 255.078125 C 46.753906 255.015625 46.441406 254.921875 46.140625 254.796875 C 45.839844 254.671875 45.550781 254.519531 45.28125 254.335938 C 45.007812 254.15625 44.757812 253.949219 44.523438 253.71875 C 44.292969 253.484375 44.085938 253.234375 43.90625 252.960938 C 43.722656 252.691406 43.570312 252.402344 43.445312 252.101562 C 43.320312 251.800781 43.226562 251.488281 43.160156 251.167969 C 43.097656 250.847656 43.066406 250.523438 43.066406 250.195312 C 43.066406 249.867188 43.097656 249.542969 43.160156 249.222656 C 43.226562 248.902344 43.320312 248.589844 43.445312 248.289062 C 43.570312 247.988281 43.722656 247.699219 43.90625 247.429688 C 44.085938 247.15625 44.292969 246.90625 44.523438 246.671875 C 44.757812 246.441406 45.007812 246.234375 45.28125 246.054688 C 45.550781 245.871094 45.839844 245.71875 46.140625 245.59375 C 46.441406 245.46875 46.753906 245.375 47.074219 245.3125 C 47.394531 245.246094 47.71875 245.214844 48.046875 245.214844 C 48.375 245.214844 48.699219 245.246094 49.019531 245.3125 C 49.339844 245.375 49.652344 245.46875 49.953125 245.59375 C 50.253906 245.71875 50.542969 245.871094 50.8125 246.054688 C 51.085938 246.234375 51.335938 246.441406 51.570312 246.671875 C 51.800781 246.90625 52.007812 247.15625 52.1875 247.429688 C 52.371094 247.699219 52.523438 247.988281 52.648438 248.289062 C 52.773438 248.589844 52.867188 248.902344 52.933594 249.222656 C 52.996094 249.542969 53.027344 249.867188 53.027344 250.195312 Z M 53.027344 250.195312 "/><path style=" stroke:none;fill-rule:nonzero;fill:#ffffff;fill-opacity:1;" d="M 33.398438 250.195312 C 33.398438 250.523438 33.367188 250.847656 33.304688 251.167969 C 33.238281 251.488281 33.144531 251.800781 33.019531 252.101562 C 32.894531 252.402344 32.742188 252.691406 32.558594 252.960938 C 32.378906 253.234375 32.171875 253.484375 31.941406 253.71875 C 31.707031 253.949219 31.457031 254.15625 31.183594 254.335938 C 30.914062 254.519531 30.625 254.671875 30.324219 254.796875 C 30.023438 254.921875 29.710938 255.015625 29.390625 255.078125 C 29.070312 255.144531 28.746094 255.175781 28.417969 255.175781 C 28.089844 255.175781 27.765625 255.144531 27.445312 255.078125 C 27.125 255.015625 26.8125 254.921875 26.511719 254.796875 C 26.210938 254.671875 25.921875 254.519531 25.652344 254.335938 C 25.378906 254.15625 25.128906 253.949219 24.894531 253.71875 C 24.664062 253.484375 24.457031 253.234375 24.277344 252.960938 C 24.09375 252.691406 23.941406 252.402344 23.816406 252.101562 C 23.691406 251.800781 23.597656 251.488281 23.53125 251.167969 C 23.46875 250.847656 23.4375 250.523438 23.4375 250.195312 C 23.4375 249.867188 23.46875 249.542969 23.53125 249.222656 C 23.597656 248.902344 23.691406 248.589844 23.816406 248.289062 C 23.941406 247.988281 24.09375 247.699219 24.277344 247.429688 C 24.457031 247.15625 24.664062 246.90625 24.894531 246.671875 C 25.128906 246.441406 25.378906 246.234375 25.652344 246.054688 C 25.921875 245.871094 26.210938 245.71875 26.511719 245.59375 C 26.8125 245.46875 27.125 245.375 27.445312 245.3125 C 27.765625 245.246094 28.089844 245.214844 28.417969 245.214844 C 28.746094 245.214844 29.070312 245.246094 29.390625 245.3125 C 29.710938 245.375 30.023438 245.46875 30.324219 245.59375 C 30.625 245.71875 30.914062 245.871094 31.183594 246.054688 C 31.457031 246.234375 31.707031 246.441406 31.941406 246.671875 C 32.171875 246.90625 32.378906 247.15625 32.558594 247.429688 C 32.742188 247.699219 32.894531 247.988281 33.019531 248.289062 C 33.144531 248.589844 33.238281 248.902344 33.304688 249.222656 C 33.367188 249.542969 33.398438 249.867188 33.398438 250.195312 Z M 33.398438 250.195312 "/><path style=" stroke:none;fill-rule:nonzero;fill:#ffffff;fill-opacity:1;" d="M 130.957031 116.894531 C 129.199219 114.257812 125.390625 113.378906 122.753906 115.136719 L 70.019531 150.292969 C 68.261719 151.464844 67.382812 153.222656 67.382812 155.273438 C 67.382812 157.324219 68.261719 159.082031 70.019531 160.253906 C 70.019531 160.253906 122.753906 195.410156 122.753906 195.410156 C 125.390625 197.167969 129.199219 196.582031 130.957031 193.652344 C 132.714844 191.015625 132.128906 187.207031 129.199219 185.449219 L 83.789062 155.273438 L 129.199219 125.097656 C 131.835938 123.339844 132.714844 119.53125 130.957031 116.894531 Z M 130.957031 116.894531 "/><path style=" stroke:none;fill-rule:nonzero;fill:#ffffff;fill-opacity:1;" d="M 185.449219 193.652344 C 187.207031 196.289062 191.015625 197.167969 193.652344 195.410156 L 246.386719 160.253906 C 248.144531 159.082031 249.023438 157.324219 249.023438 155.273438 C 249.023438 153.222656 248.144531 151.464844 246.386719 150.292969 L 193.652344 115.136719 C 191.015625 113.378906 187.207031 113.964844 185.449219 116.894531 C 183.691406 119.53125 184.277344 123.339844 187.207031 125.097656 L 232.617188 155.273438 L 187.207031 185.449219 C 184.570312 187.207031 183.691406 191.015625 185.449219 193.652344 Z M 185.449219 193.652344 "/><path style=" stroke:none;fill-rule:nonzero;fill:#ffffff;fill-opacity:1;" d="M 164.355469 109.863281 L 140.917969 197.753906 C 140.039062 200.976562 142.089844 204.199219 145.019531 204.785156 C 145.605469 204.785156 145.898438 205.078125 146.484375 205.078125 C 149.121094 205.078125 151.464844 203.320312 152.050781 200.683594 L 175.488281 112.792969 C 176.367188 109.570312 174.316406 106.347656 171.386719 105.761719 C 168.457031 104.882812 165.234375 106.640625 164.355469 109.863281 Z M 164.355469 109.863281 "/><g clip-rule="nonzero" clip-path="url(#90f7e88e12)"><path style=" stroke:none;fill-rule:nonzero;fill:#ffffff;fill-opacity:1;" d="M 134.765625 292.96875 L 117.1875 292.96875 C 113.964844 292.96875 111.328125 295.605469 111.328125 298.828125 C 111.328125 302.050781 113.964844 304.6875 117.1875 304.6875 L 199.21875 304.6875 C 202.441406 304.6875 205.078125 302.050781 205.078125 298.828125 C 205.078125 295.605469 202.441406 292.96875 199.21875 292.96875 L 181.640625 292.96875 L 181.640625 275.390625 L 298.828125 275.390625 C 306.445312 275.390625 312.890625 270.410156 315.234375 263.671875 L 309.082031 263.671875 C 306.445312 263.671875 304.101562 263.378906 301.757812 262.5 C 300.878906 263.085938 299.707031 263.671875 298.535156 263.671875 L 17.578125 263.671875 C 14.355469 263.671875 11.71875 261.035156 11.71875 257.8125 L 11.71875 240.234375 L 259.570312 240.234375 L 258.691406 239.355469 C 255.761719 236.425781 253.417969 232.617188 252.246094 228.515625 L 11.71875 228.515625 L 11.71875 87.890625 C 11.71875 84.667969 14.355469 82.03125 17.578125 82.03125 L 298.828125 82.03125 C 302.050781 82.03125 304.6875 84.667969 304.6875 87.890625 L 304.6875 117.773438 C 306.152344 117.480469 307.617188 117.1875 309.375 117.1875 L 316.40625 117.1875 L 316.40625 87.890625 C 316.40625 78.222656 308.496094 70.3125 298.828125 70.3125 L 17.578125 70.3125 C 7.910156 70.3125 0 78.222656 0 87.890625 L 0 257.8125 C 0 267.480469 7.910156 275.390625 17.578125 275.390625 L 134.765625 275.390625 Z M 146.484375 275.390625 L 169.921875 275.390625 L 169.921875 292.96875 L 146.484375 292.96875 Z M 146.484375 275.390625 "/></g><path style=" stroke:none;fill-rule:nonzero;fill:#ffffff;fill-opacity:1;" d="M 363.574219 171.972656 C 362.988281 170.507812 362.402344 169.335938 361.816406 167.871094 C 365.625 162.304688 365.039062 154.6875 360.058594 149.707031 L 354.199219 143.847656 C 351.5625 141.210938 347.753906 139.746094 343.945312 139.746094 C 341.015625 139.746094 338.378906 140.625 336.035156 142.089844 C 334.863281 141.503906 333.398438 140.917969 331.933594 140.332031 C 330.46875 133.59375 324.609375 128.90625 317.871094 128.90625 L 309.667969 128.90625 C 302.636719 128.90625 296.777344 133.886719 295.605469 140.332031 C 294.140625 140.917969 292.96875 141.503906 291.503906 142.089844 C 289.160156 140.625 286.523438 139.746094 283.59375 139.746094 C 279.785156 139.746094 275.976562 141.210938 273.339844 143.847656 L 267.480469 149.707031 C 262.5 154.6875 261.914062 162.304688 265.722656 167.871094 C 265.136719 169.042969 264.550781 170.507812 263.964844 171.972656 C 257.226562 173.4375 252.539062 179.296875 252.539062 186.035156 L 252.539062 194.238281 C 252.539062 201.269531 257.519531 207.128906 263.964844 208.300781 C 264.550781 209.765625 265.136719 210.9375 265.722656 212.402344 C 264.257812 214.746094 263.378906 217.382812 263.378906 220.3125 C 263.378906 224.121094 264.84375 227.929688 267.480469 230.566406 L 273.339844 236.425781 C 275.976562 239.0625 279.785156 240.527344 283.59375 240.527344 C 286.523438 240.527344 289.160156 239.648438 291.503906 238.183594 C 292.675781 238.769531 294.140625 239.355469 295.605469 239.941406 C 297.070312 246.679688 302.929688 251.367188 309.667969 251.367188 L 317.871094 251.367188 C 324.902344 251.367188 330.761719 246.386719 331.933594 239.941406 C 333.398438 239.355469 334.570312 238.769531 336.035156 238.183594 C 338.378906 239.648438 341.015625 240.527344 343.945312 240.527344 C 347.753906 240.527344 351.5625 239.0625 354.199219 236.425781 L 360.058594 230.566406 C 362.695312 227.929688 364.160156 224.121094 364.160156 220.3125 C 364.160156 217.382812 363.28125 214.746094 361.816406 212.402344 C 362.402344 211.230469 362.988281 209.765625 363.574219 208.300781 C 370.3125 206.835938 375 200.976562 375 194.238281 L 375 186.035156 C 375 179.296875 370.019531 173.4375 363.574219 171.972656 Z M 363.28125 194.53125 C 363.28125 195.996094 362.109375 197.167969 360.644531 197.167969 L 354.492188 197.167969 C 353.320312 203.613281 350.976562 209.179688 347.460938 214.160156 L 351.855469 218.554688 C 353.027344 219.726562 353.027344 221.484375 351.855469 222.363281 L 345.996094 228.222656 C 345.410156 228.808594 344.824219 229.101562 343.945312 229.101562 C 343.066406 229.101562 342.480469 228.808594 341.894531 228.222656 L 337.5 223.828125 C 332.519531 227.34375 326.660156 229.980469 320.507812 230.859375 L 320.507812 237.011719 C 320.507812 238.476562 319.335938 239.648438 317.871094 239.648438 L 309.667969 239.648438 C 308.203125 239.648438 307.03125 238.476562 307.03125 237.011719 L 307.03125 231.445312 C 300.585938 230.273438 295.019531 227.929688 290.039062 224.414062 L 285.058594 228.515625 C 284.472656 229.101562 283.886719 229.394531 283.007812 229.394531 C 282.128906 229.394531 281.835938 229.101562 281.25 228.515625 L 275.390625 222.65625 C 274.21875 221.484375 274.21875 219.726562 275.390625 218.847656 L 279.785156 214.453125 C 276.269531 209.472656 273.632812 203.613281 272.753906 197.460938 L 266.601562 197.460938 C 265.136719 197.460938 263.964844 196.289062 263.964844 194.824219 L 263.964844 186.621094 C 263.964844 185.15625 265.136719 183.984375 266.601562 183.984375 L 272.460938 183.984375 C 273.632812 177.539062 275.976562 171.972656 279.492188 166.992188 L 275.390625 162.011719 C 274.21875 160.839844 274.21875 159.082031 275.390625 158.203125 L 281.25 152.34375 C 281.835938 151.757812 282.421875 151.464844 283.300781 151.464844 C 284.179688 151.464844 284.765625 151.757812 285.351562 152.34375 L 289.746094 156.738281 C 294.726562 153.222656 300.585938 150.585938 306.738281 149.707031 L 306.738281 143.554688 C 306.738281 142.089844 307.910156 140.917969 309.375 140.917969 L 317.578125 140.917969 C 319.042969 140.917969 320.214844 142.089844 320.214844 143.554688 L 320.214844 149.414062 C 326.660156 150.585938 332.226562 152.929688 337.207031 156.445312 L 341.601562 152.050781 C 342.1875 151.464844 342.773438 151.171875 343.652344 151.171875 C 344.53125 151.171875 345.117188 151.464844 345.703125 152.050781 L 351.5625 157.910156 C 352.734375 159.082031 352.734375 160.839844 351.5625 161.71875 L 347.167969 166.113281 C 350.683594 171.09375 353.320312 176.953125 354.199219 183.105469 L 360.351562 183.105469 C 361.816406 183.105469 362.988281 184.277344 362.988281 185.742188 L 362.988281 194.53125 Z M 363.28125 194.53125 "/><path style=" stroke:none;fill-rule:nonzero;fill:#ffffff;fill-opacity:1;" d="M 313.476562 166.992188 C 300.585938 166.992188 290.039062 177.539062 290.039062 190.429688 C 290.039062 203.320312 300.585938 213.867188 313.476562 213.867188 C 326.367188 213.867188 336.914062 203.320312 336.914062 190.429688 C 336.914062 177.539062 326.367188 166.992188 313.476562 166.992188 Z M 313.476562 202.148438 C 307.03125 202.148438 301.757812 196.875 301.757812 190.429688 C 301.757812 183.984375 307.03125 178.710938 313.476562 178.710938 C 319.921875 178.710938 325.195312 183.984375 325.195312 190.429688 C 325.195312 196.875 319.921875 202.148438 313.476562 202.148438 Z M 313.476562 202.148438 "/></g></svg>