<svg xmlns="http://www.w3.org/2000/svg" xmlns:xlink="http://www.w3.org/1999/xlink" width="500" zoomAndPan="magnify" viewBox="0 0 375 374.999991" height="500" preserveAspectRatio="xMidYMid meet" version="1.2"><defs><clipPath id="55411c7846"><path d="M 314 174 L 363.75 174 L 363.75 191 L 314 191 Z M 314 174 "/></clipPath><clipPath id="ab7fa8ba63"><path d="M 11.25 161 L 61 161 L 61 178 L 11.25 178 Z M 11.25 161 "/></clipPath></defs><g id="4621d82e87"><path style=" stroke:none;fill-rule:nonzero;fill:#ffffff;fill-opacity:1;" d="M 194.957031 49.386719 L 195.570312 49.367188 L 201.757812 9.753906 C 202.265625 6.488281 200.886719 3.136719 198.082031 1.398438 C 196.726562 0.546875 195.101562 0.0898438 193.382812 0.15625 C 191.664062 0.214844 190.089844 0.800781 188.800781 1.75 C 186.132812 3.703125 185.019531 7.152344 185.769531 10.367188 L 194.957031 49.386719 "/><path style=" stroke:none;fill-rule:nonzero;fill:#ffffff;fill-opacity:1;" d="M 282.972656 39.15625 C 285.046875 36.585938 285.535156 32.992188 283.96875 30.078125 C 283.21875 28.671875 282.046875 27.460938 280.519531 26.660156 C 279.007812 25.855469 277.34375 25.574219 275.753906 25.738281 C 272.46875 26.101562 269.773438 28.523438 268.824219 31.691406 L 257.261719 70.085938 L 257.808594 70.371094 L 282.972656 39.15625 "/><path style=" stroke:none;fill-rule:nonzero;fill:#ffffff;fill-opacity:1;" d="M 344.011719 97.867188 C 344.070312 96.265625 343.660156 94.632812 342.738281 93.175781 C 341.820312 91.722656 340.53125 90.644531 339.066406 90 C 336.035156 88.671875 332.488281 89.425781 330.085938 91.691406 L 300.875 119.160156 L 301.207031 119.679688 L 338.605469 105.226562 C 341.695312 104.042969 343.902344 101.171875 344.011719 97.867188 "/><g clip-rule="nonzero" clip-path="url(#55411c7846)"><path style=" stroke:none;fill-rule:nonzero;fill:#ffffff;fill-opacity:1;" d="M 363.359375 181.898438 C 363.289062 180.167969 362.703125 178.59375 361.757812 177.304688 C 359.8125 174.636719 356.351562 173.523438 353.148438 174.277344 L 314.117188 183.460938 L 314.136719 184.085938 L 353.753906 190.261719 C 357.015625 190.78125 360.367188 189.402344 362.117188 186.589844 C 362.957031 185.230469 363.417969 183.617188 363.359375 181.898438 "/></g><g clip-rule="nonzero" clip-path="url(#ab7fa8ba63)"><path style=" stroke:none;fill-rule:nonzero;fill:#ffffff;fill-opacity:1;" d="M 21.246094 161.75 C 17.984375 161.242188 14.628906 162.617188 12.890625 165.421875 C 12.042969 166.78125 11.582031 168.402344 11.640625 170.125 C 11.707031 171.84375 12.296875 173.417969 13.242188 174.714844 C 15.199219 177.375 18.636719 178.496094 21.863281 177.734375 L 60.882812 168.550781 L 60.863281 167.933594 L 21.246094 161.75 "/></g><path style=" stroke:none;fill-rule:nonzero;fill:#ffffff;fill-opacity:1;" d="M 41.574219 79.535156 C 40.15625 80.289062 38.953125 81.460938 38.144531 82.984375 C 37.339844 84.507812 37.058594 86.160156 37.234375 87.753906 C 37.59375 91.046875 40.019531 93.734375 43.183594 94.683594 L 81.578125 106.242188 L 81.863281 105.695312 L 50.652344 80.53125 C 48.082031 78.460938 44.484375 77.980469 41.574219 79.535156 "/><path style=" stroke:none;fill-rule:nonzero;fill:#ffffff;fill-opacity:1;" d="M 130.65625 62.628906 L 131.171875 62.296875 L 116.71875 24.898438 C 115.527344 21.820312 112.664062 19.601562 109.363281 19.496094 C 107.757812 19.445312 106.128906 19.855469 104.671875 20.765625 C 103.214844 21.683594 102.140625 22.984375 101.496094 24.449219 C 100.15625 27.46875 100.917969 31.015625 103.175781 33.421875 L 130.65625 62.628906 "/><path style=" stroke:none;fill-rule:nonzero;fill:#ffffff;fill-opacity:1;" d="M 217.003906 319.589844 C 216.640625 319.589844 216.179688 319.675781 215.574219 319.84375 L 204.199219 323.085938 C 183.199219 329.058594 161.488281 335.242188 140.074219 341.164062 C 137.28125 341.9375 137.125 343.257812 137.035156 346.167969 C 137.015625 346.695312 136.996094 347.234375 136.949219 347.78125 C 136.976562 355.53125 139.109375 356.175781 141.492188 356.175781 C 142.703125 356.175781 144.210938 355.921875 146.074219 355.394531 C 168.074219 349.207031 190.070312 343.003906 212.058594 336.796875 C 215.039062 335.957031 217.492188 333.726562 218.78125 330.699219 C 220.179688 327.425781 220.042969 323.78125 218.410156 320.722656 C 217.8125 319.589844 217.363281 319.589844 217.003906 319.589844 "/><path style=" stroke:none;fill-rule:nonzero;fill:#ffffff;fill-opacity:1;" d="M 136.976562 325.734375 C 137.007812 333.875 138.464844 333.894531 140.015625 333.894531 C 140.015625 333.894531 140.015625 333.894531 140.027344 333.894531 C 141.101562 333.894531 142.558594 333.628906 144.609375 333.054688 C 151.695312 331.050781 158.78125 329.046875 165.863281 327.042969 C 181.46875 322.636719 197.605469 318.074219 213.492188 313.667969 C 217.34375 312.589844 218.59375 311.566406 218.847656 309.277344 L 218.9375 308.566406 C 219.425781 304.207031 219.855469 300.445312 217.148438 297.179688 C 216.757812 296.710938 216.503906 296.683594 216.238281 296.683594 C 215.78125 296.683594 215.15625 296.859375 214.480469 297.054688 L 214.199219 297.132812 C 193.84375 302.917969 168.492188 310.109375 144.152344 316.890625 C 135.804688 319.214844 136.664062 323.859375 136.949219 325.382812 L 136.976562 325.558594 L 136.976562 325.734375 "/><path style=" stroke:none;fill-rule:nonzero;fill:#ffffff;fill-opacity:1;" d="M 166.1875 356.652344 C 172.480469 356.957031 180.777344 357.003906 187.285156 357.003906 C 191.632812 357.003906 195.953125 356.976562 199.765625 356.957031 C 202.714844 356.945312 205.414062 356.925781 207.660156 356.925781 C 213.238281 356.917969 216.886719 355.726562 218.488281 353.359375 C 220.0625 351.015625 219.925781 347.195312 218.058594 341.984375 L 166.1875 356.652344 "/><path style=" stroke:none;fill-rule:nonzero;fill:#ffffff;fill-opacity:1;" d="M 143.625 295.871094 L 142 295.871094 C 139.03125 295.878906 138.015625 298.128906 137.671875 299.46875 C 136.734375 303.171875 136.117188 307.460938 138.367188 311.625 L 191.78125 296.527344 C 178.441406 296.195312 157.292969 295.871094 143.625 295.871094 "/><path style=" stroke:none;fill-rule:nonzero;fill:#ffffff;fill-opacity:1;" d="M 156.660156 363.300781 C 156.484375 366.757812 157.332031 369.632812 159.113281 371.613281 C 160.9375 373.65625 163.820312 374.820312 167.4375 374.984375 C 169.019531 375.054688 173.164062 375.105469 177.980469 375.105469 C 182.808594 375.105469 186.953125 375.054688 188.535156 374.984375 C 192.152344 374.820312 195.023438 373.65625 196.863281 371.613281 C 198.640625 369.632812 199.480469 366.757812 199.304688 363.300781 L 156.660156 363.300781 "/><path style=" stroke:none;fill-rule:nonzero;fill:#ffffff;fill-opacity:1;" d="M 280.21875 181.859375 C 278.585938 186.941406 274.128906 190.761719 267.964844 192.375 C 264.027344 183.402344 261.308594 179.886719 256.910156 177.96875 C 252.914062 176.222656 250.050781 176.875 248.417969 179.925781 C 246.847656 182.835938 247.753906 185.554688 250.980469 187.558594 C 253.921875 189.394531 255.574219 191.457031 255.894531 193.695312 C 256.226562 195.960938 255.183594 198.472656 252.808594 201.140625 C 249.191406 205.195312 250.414062 208.097656 252.074219 209.816406 C 253.316406 211.097656 254.683594 211.714844 256.121094 211.683594 C 258.328125 211.617188 260.136719 210.03125 261.28125 208.714844 C 264.046875 205.488281 266.378906 203.769531 269.988281 204.5 C 271.128906 215.132812 266.359375 223.234375 256.179688 227.953125 C 255.398438 227.671875 255.152344 227.035156 254.828125 226.058594 C 254.671875 225.578125 254.515625 225.101562 254.242188 224.660156 C 252.105469 221.242188 249.660156 220.292969 246.75 221.769531 C 243.242188 223.566406 243.445312 226.792969 244.03125 229.410156 C 246.054688 238.644531 244.960938 245.601562 240.855469 249.523438 C 236.800781 253.410156 229.902344 254.203125 220.929688 251.808594 C 218.273438 251.09375 215.019531 250.753906 213.335938 254.386719 C 211.84375 257.621094 212.976562 260.222656 216.785156 262.34375 C 217.726562 262.871094 218.761719 263.152344 219.769531 263.425781 C 221.3125 263.859375 222.769531 264.257812 223.84375 265.460938 C 223.8125 266.222656 223.8125 266.976562 223.824219 267.707031 C 223.84375 270.054688 223.871094 272.261719 222.738281 274.285156 L 197.253906 274.285156 L 197.253906 236.328125 C 197.671875 236.601562 198.0625 236.835938 198.425781 237.070312 C 199.316406 237.621094 200.019531 238.058594 200.683594 238.558594 C 201.21875 238.957031 201.777344 239.417969 202.34375 239.894531 C 204.542969 241.714844 207.003906 243.765625 209.625 243.464844 C 211.070312 243.296875 212.351562 242.425781 213.550781 240.835938 C 214.804688 239.164062 215.273438 237.679688 215.007812 236.289062 C 214.558594 233.972656 212.164062 232.539062 209.859375 231.128906 C 209 230.613281 208.1875 230.125 207.503906 229.605469 C 196.792969 221.496094 195.015625 212.796875 201.542969 200.542969 C 203.253906 197.347656 202.804688 194.601562 200.320312 193.214844 C 195.570312 190.558594 196.109375 186.824219 196.667969 182.886719 C 196.929688 181.039062 197.203125 179.132812 196.902344 177.355469 C 196.324219 173.945312 196.804688 171.207031 198.308594 169.234375 C 199.941406 167.09375 202.785156 165.804688 206.769531 165.394531 C 208.285156 165.246094 209.527344 164.621094 210.347656 163.585938 C 211.1875 162.53125 211.53125 161.121094 211.335938 159.53125 C 210.964844 156.472656 208.851562 154.632812 205.6875 154.625 C 203.644531 154.625 201.71875 154.800781 199.441406 155.003906 C 198.582031 155.074219 197.683594 155.160156 196.734375 155.238281 C 197.007812 151.847656 196.871094 148.46875 196.753906 145.195312 C 196.480469 137.964844 196.214844 131.140625 199.988281 124.59375 C 200.800781 123.21875 201.21875 121.203125 200 119.726562 C 195.355469 114.078125 196.070312 107.628906 196.753906 101.386719 C 196.988281 99.214844 197.234375 96.96875 197.253906 94.800781 C 197.3125 88.800781 201.210938 84.089844 207.699219 82.203125 C 214.363281 80.257812 219.648438 81.644531 223.84375 86.433594 C 222.699219 87.175781 221.515625 87.851562 220.375 88.507812 C 217.128906 90.371094 214.0625 92.132812 211.871094 95.230469 C 209.976562 97.90625 210.082031 100.488281 212.164062 102.695312 C 214.304688 104.953125 216.933594 105.109375 219.5625 103.144531 C 220.21875 102.648438 220.832031 102.097656 221.429688 101.5625 C 222.113281 100.945312 222.828125 100.300781 223.589844 99.773438 C 231.808594 94.066406 243.867188 95.347656 250.472656 102.628906 C 257.332031 110.199219 257.46875 120.785156 250.851562 129.121094 C 244.140625 123.753906 237.796875 121.769531 230.917969 122.914062 L 230.761719 122.941406 C 226.980469 123.570312 222.277344 124.351562 222.71875 129.746094 C 222.855469 131.511719 223.402344 132.753906 224.371094 133.566406 C 226.042969 134.945312 228.601562 134.660156 231.0625 134.394531 L 231.925781 134.308594 C 236.554688 133.847656 240.730469 135.257812 243.386719 138.1875 C 245.742188 140.796875 246.632812 144.277344 245.886719 147.988281 C 245.625 149.289062 245.058594 150.578125 244.5 151.820312 C 244.363281 152.152344 244.21875 152.476562 244.070312 152.808594 C 242.398438 156.695312 243.269531 159.65625 246.523438 161.144531 C 250.628906 163.019531 252.992188 159.902344 254.417969 157.398438 C 256.960938 152.925781 257.890625 149.40625 257.339844 146.316406 C 256.34375 140.738281 258.738281 137.425781 262.949219 133.964844 C 265.460938 135.65625 267.152344 138.0625 268.246094 141.492188 C 270.75 149.277344 269.527344 156.277344 264.632812 162.265625 C 262.226562 165.207031 262.226562 168.082031 264.640625 170.339844 C 267.339844 172.871094 270.308594 172.585938 273.230469 169.515625 C 273.90625 168.804688 274.570312 168.042969 275.320312 167.164062 C 275.636719 166.800781 275.957031 166.417969 276.328125 166 C 280.433594 171.003906 281.859375 176.757812 280.21875 181.859375 Z M 166.246094 274.324219 L 151.519531 274.324219 C 146.230469 274.292969 137.046875 274.226562 133.402344 274.097656 C 133.34375 273.660156 133.285156 273.238281 133.226562 272.828125 C 133.078125 271.761719 132.941406 270.796875 132.84375 269.820312 C 130.507812 247.558594 123.5625 229.324219 111.609375 214.089844 C 84.792969 179.933594 89.75 131.71875 122.886719 104.316406 C 136.078125 93.410156 150.269531 87.929688 166.246094 87.566406 Z M 280.6875 148.917969 C 281.019531 139.390625 277.558594 131.40625 270.417969 125.171875 C 267.679688 122.777344 267.144531 120.402344 267.144531 117.109375 C 267.113281 101.015625 257.097656 88.585938 241.609375 85.449219 C 237.972656 84.703125 236.027344 83.0625 234.074219 80.667969 C 226.179688 70.957031 214.628906 67.59375 203.183594 71.6875 C 191.996094 75.683594 185.808594 84.988281 185.761719 97.878906 C 185.683594 118.898438 185.703125 140.277344 185.710938 160.945312 C 185.722656 169.527344 185.730469 178.105469 185.730469 186.6875 L 185.730469 187.183594 L 185.800781 187.183594 L 185.800781 212.730469 C 185.800781 233.261719 185.800781 253.792969 185.808594 274.324219 L 177.972656 274.324219 C 177.980469 251.535156 177.980469 228.757812 177.980469 205.96875 L 177.980469 163.097656 C 177.980469 137.738281 177.992188 112.378906 177.980469 87.019531 C 177.980469 81.429688 177.679688 78.488281 176 76.90625 C 174.25 75.253906 171.230469 75.246094 165.238281 75.617188 C 126.453125 78 92.515625 107.679688 84.53125 146.191406 C 79.148438 172.15625 84.394531 196.273438 100.128906 217.839844 C 114.265625 237.21875 121.292969 256.664062 121.585938 277.285156 C 121.585938 277.421875 121.597656 277.65625 121.605469 277.9375 C 121.761719 282.5625 125.515625 286.175781 130.136719 286.175781 L 226.109375 286.175781 C 228.425781 286.175781 230.585938 285.269531 232.207031 283.625 C 233.820312 281.996094 234.679688 279.835938 234.652344 277.546875 C 234.425781 270.257812 234.984375 263.542969 244.226562 260.503906 C 249.132812 258.894531 253.304688 253.898438 254.847656 247.792969 C 256.277344 242.164062 259.394531 239.476562 263.96875 236.964844 C 275.753906 230.464844 281.996094 219.324219 282.027344 204.746094 C 282.035156 200.730469 282.535156 197.984375 285.132812 195.003906 C 295.441406 183.167969 294.875 168.023438 283.667969 156.414062 C 281.410156 154.085938 280.578125 151.984375 280.6875 148.917969 "/></g></svg>