<svg xmlns="http://www.w3.org/2000/svg" xmlns:xlink="http://www.w3.org/1999/xlink" width="500" zoomAndPan="magnify" viewBox="0 0 375 374.999991" height="500" preserveAspectRatio="xMidYMid meet" version="1.2"><g id="34223e995f"><path style=" stroke:none;fill-rule:nonzero;fill:#ffffff;fill-opacity:1;" d="M 183.707031 218.03125 C 184.4375 218.699219 185.285156 219.148438 186.246094 219.386719 C 187.210938 219.621094 188.167969 219.613281 189.128906 219.363281 C 235.859375 207.144531 239.953125 158.074219 240.304688 150.359375 C 288.640625 99.957031 283.078125 42.527344 281.832031 33.402344 C 281.8125 33.214844 281.738281 33.050781 281.609375 32.914062 C 281.457031 32.796875 281.285156 32.738281 281.097656 32.730469 C 280.066406 32.671875 278.433594 32.609375 276.285156 32.609375 C 271.101562 32.6875 265.9375 33.035156 260.789062 33.644531 C 255.640625 34.253906 250.535156 35.121094 245.476562 36.253906 C 240.414062 37.386719 235.425781 38.773438 230.507812 40.417969 C 225.589844 42.058594 220.769531 43.949219 216.046875 46.085938 C 211.324219 48.222656 206.71875 50.59375 202.238281 53.203125 C 197.757812 55.8125 193.421875 58.640625 189.230469 61.695312 C 185.039062 64.746094 181.015625 68.003906 177.15625 71.46875 C 173.300781 74.933594 169.628906 78.585938 166.144531 82.425781 C 153.210938 84.386719 108.269531 94.394531 99.921875 139.449219 C 99.878906 139.6875 99.851562 139.925781 99.835938 140.167969 C 99.820312 140.410156 99.820312 140.652344 99.835938 140.890625 C 99.851562 141.132812 99.882812 141.371094 99.929688 141.609375 C 99.972656 141.847656 100.035156 142.082031 100.109375 142.3125 C 100.183594 142.542969 100.269531 142.765625 100.371094 142.984375 C 100.476562 143.203125 100.589844 143.417969 100.71875 143.621094 C 100.847656 143.828125 100.988281 144.023438 101.140625 144.210938 C 101.292969 144.398438 101.457031 144.574219 101.628906 144.742188 C 101.804688 144.910156 101.988281 145.066406 102.183594 145.210938 C 102.378906 145.355469 102.578125 145.488281 102.789062 145.605469 C 103 145.726562 103.214844 145.832031 103.441406 145.925781 C 103.664062 146.015625 103.890625 146.09375 104.125 146.160156 C 104.359375 146.222656 104.59375 146.273438 104.832031 146.308594 C 105.074219 146.34375 105.3125 146.363281 105.554688 146.367188 C 105.796875 146.375 106.039062 146.363281 106.277344 146.339844 C 106.519531 146.316406 106.757812 146.277344 106.992188 146.222656 L 129.546875 141.027344 C 127.835938 145.125 126.167969 149.324219 124.589844 153.742188 L 126.300781 155.300781 L 110.824219 172.011719 C 110.5625 172.292969 110.332031 172.597656 110.132812 172.925781 C 109.929688 173.253906 109.765625 173.597656 109.632812 173.957031 C 109.5 174.316406 109.402344 174.6875 109.34375 175.066406 C 109.28125 175.445312 109.257812 175.828125 109.273438 176.210938 C 109.289062 176.59375 109.339844 176.972656 109.429688 177.347656 C 109.519531 177.71875 109.644531 178.082031 109.804688 178.429688 C 109.964844 178.78125 110.160156 179.109375 110.386719 179.421875 C 110.609375 179.730469 110.863281 180.015625 111.144531 180.277344 C 111.425781 180.539062 111.730469 180.769531 112.058594 180.972656 C 112.386719 181.171875 112.730469 181.339844 113.089844 181.472656 C 113.449219 181.605469 113.820312 181.703125 114.199219 181.765625 C 114.578125 181.824219 114.960938 181.847656 115.34375 181.835938 C 115.726562 181.820312 116.105469 181.769531 116.480469 181.679688 C 116.855469 181.589844 117.214844 181.464844 117.5625 181.304688 C 117.914062 181.144531 118.242188 180.953125 118.554688 180.730469 C 118.867188 180.503906 119.152344 180.25 119.414062 179.96875 L 134.945312 163.199219 L 144.449219 171.875 L 119.378906 198.945312 C 119.121094 199.226562 118.890625 199.53125 118.6875 199.859375 C 118.488281 200.1875 118.320312 200.53125 118.1875 200.890625 C 118.054688 201.253906 117.957031 201.621094 117.898438 202 C 117.839844 202.382812 117.816406 202.761719 117.832031 203.144531 C 117.847656 203.53125 117.898438 203.910156 117.988281 204.28125 C 118.078125 204.65625 118.203125 205.015625 118.363281 205.367188 C 118.523438 205.714844 118.714844 206.042969 118.941406 206.355469 C 119.167969 206.667969 119.421875 206.953125 119.703125 207.214844 C 119.984375 207.472656 120.289062 207.707031 120.617188 207.90625 C 120.941406 208.109375 121.285156 208.273438 121.648438 208.410156 C 122.007812 208.542969 122.375 208.640625 122.753906 208.699219 C 123.136719 208.761719 123.515625 208.785156 123.898438 208.769531 C 124.285156 208.753906 124.664062 208.703125 125.035156 208.613281 C 125.410156 208.527344 125.773438 208.402344 126.121094 208.242188 C 126.46875 208.082031 126.800781 207.890625 127.113281 207.664062 C 127.421875 207.4375 127.710938 207.1875 127.96875 206.90625 L 153.097656 179.773438 L 161.726562 187.652344 L 148.019531 204.097656 C 147.773438 204.394531 147.558594 204.710938 147.378906 205.046875 C 147.195312 205.382812 147.046875 205.738281 146.933594 206.101562 C 146.820312 206.46875 146.742188 206.84375 146.703125 207.226562 C 146.660156 207.609375 146.660156 207.992188 146.695312 208.371094 C 146.730469 208.753906 146.800781 209.128906 146.910156 209.5 C 147.019531 209.867188 147.164062 210.21875 147.34375 210.558594 C 147.519531 210.898438 147.730469 211.21875 147.972656 211.519531 C 148.214844 211.816406 148.480469 212.089844 148.777344 212.335938 C 149.070312 212.582031 149.386719 212.796875 149.726562 212.980469 C 150.0625 213.164062 150.414062 213.3125 150.78125 213.425781 C 151.148438 213.539062 151.523438 213.617188 151.902344 213.65625 C 152.285156 213.699219 152.667969 213.703125 153.050781 213.667969 C 153.433594 213.632812 153.808594 213.5625 154.175781 213.453125 C 154.542969 213.34375 154.898438 213.203125 155.238281 213.023438 C 155.578125 212.847656 155.898438 212.636719 156.199219 212.394531 C 156.496094 212.15625 156.769531 211.886719 157.015625 211.59375 L 170.378906 195.554688 L 171.460938 196.542969 C 176.386719 194.402344 181.074219 192.179688 185.582031 189.898438 L 181.867188 212.761719 C 181.707031 213.738281 181.792969 214.695312 182.117188 215.628906 C 182.445312 216.566406 182.976562 217.363281 183.707031 218.03125 Z M 194.996094 204.972656 L 198.59375 182.8125 C 208.582031 176.996094 218.003906 170.378906 226.863281 162.957031 C 223.929688 176.230469 216.089844 195.648438 194.996094 204.972656 Z M 113.832031 132.628906 C 121.523438 111.140625 140.234375 101.4375 154.082031 97.09375 C 147.03125 106.714844 140.886719 116.886719 135.648438 127.601562 Z M 173.667969 182.699219 L 138.328125 150.429688 C 174.242188 58.753906 243.15625 45.785156 270.925781 44.449219 C 271.578125 70.640625 264.128906 140.21875 173.667969 182.699219 Z M 173.667969 182.699219 "/><path style=" stroke:none;fill-rule:nonzero;fill:#ffffff;fill-opacity:1;" d="M 237.394531 104.488281 C 237.367188 103.742188 237.300781 102.996094 237.203125 102.253906 C 237.101562 101.515625 236.964844 100.777344 236.796875 100.050781 C 236.625 99.320312 236.421875 98.601562 236.179688 97.894531 C 235.941406 97.1875 235.667969 96.488281 235.363281 95.808594 C 235.058594 95.125 234.71875 94.457031 234.347656 93.808594 C 233.980469 93.15625 233.578125 92.527344 233.148438 91.914062 C 232.71875 91.300781 232.257812 90.710938 231.773438 90.144531 C 231.285156 89.578125 230.773438 89.03125 230.234375 88.515625 C 229.695312 87.996094 229.132812 87.503906 228.546875 87.039062 C 227.960938 86.574219 227.351562 86.136719 226.722656 85.730469 C 226.097656 85.324219 225.449219 84.949219 224.785156 84.601562 C 224.121094 84.257812 223.445312 83.945312 222.75 83.667969 C 222.054688 83.386719 221.351562 83.140625 220.632812 82.929688 C 219.914062 82.714844 219.1875 82.539062 218.453125 82.398438 C 217.71875 82.253906 216.980469 82.148438 216.234375 82.074219 C 215.492188 82.003906 214.746094 81.96875 213.996094 81.96875 C 213.222656 81.96875 212.453125 82.007812 211.683594 82.082031 C 210.914062 82.160156 210.148438 82.273438 209.390625 82.425781 C 208.632812 82.578125 207.882812 82.765625 207.144531 82.992188 C 206.402344 83.21875 205.679688 83.480469 204.964844 83.777344 C 204.25 84.078125 203.554688 84.410156 202.875 84.777344 C 202.191406 85.144531 201.53125 85.542969 200.890625 85.976562 C 200.25 86.410156 199.632812 86.871094 199.039062 87.367188 C 198.441406 87.859375 197.871094 88.382812 197.328125 88.933594 C 196.785156 89.480469 196.269531 90.058594 195.785156 90.660156 C 195.300781 91.261719 194.84375 91.882812 194.417969 92.53125 C 193.996094 93.175781 193.601562 93.84375 193.246094 94.527344 C 192.886719 95.210938 192.5625 95.914062 192.273438 96.628906 C 191.984375 97.347656 191.730469 98.078125 191.515625 98.820312 C 191.296875 99.5625 191.117188 100.3125 190.976562 101.074219 C 190.832031 101.832031 190.726562 102.597656 190.660156 103.367188 C 190.59375 104.140625 190.566406 104.910156 190.578125 105.683594 C 190.585938 106.457031 190.632812 107.226562 190.71875 107.996094 C 190.804688 108.765625 190.929688 109.527344 191.09375 110.285156 C 191.253906 111.039062 191.453125 111.785156 191.6875 112.523438 C 191.921875 113.257812 192.195312 113.980469 192.503906 114.691406 C 192.808594 115.402344 193.152344 116.09375 193.527344 116.769531 C 193.902344 117.445312 194.3125 118.101562 194.753906 118.738281 C 195.191406 119.371094 195.664062 119.984375 196.164062 120.574219 C 196.667969 121.160156 197.195312 121.722656 197.753906 122.261719 C 198.308594 122.796875 198.890625 123.304688 199.5 123.78125 C 200.105469 124.261719 200.738281 124.707031 201.386719 125.125 C 202.039062 125.539062 202.710938 125.921875 203.402344 126.273438 C 204.089844 126.625 204.796875 126.9375 205.515625 127.21875 C 206.238281 127.496094 206.96875 127.742188 207.714844 127.949219 C 208.460938 128.15625 209.214844 128.324219 209.976562 128.457031 C 210.738281 128.589844 211.503906 128.6875 212.273438 128.742188 C 213.046875 128.800781 213.816406 128.816406 214.589844 128.796875 C 215.363281 128.777344 216.132812 128.71875 216.902344 128.625 C 217.667969 128.527344 218.429688 128.394531 219.183594 128.222656 C 219.9375 128.050781 220.679688 127.84375 221.414062 127.597656 C 222.148438 127.355469 222.867188 127.074219 223.574219 126.757812 C 224.277344 126.441406 224.96875 126.089844 225.636719 125.707031 C 226.308594 125.320312 226.960938 124.90625 227.589844 124.457031 C 228.21875 124.007812 228.824219 123.527344 229.40625 123.019531 C 229.988281 122.511719 230.542969 121.972656 231.074219 121.410156 C 231.601562 120.84375 232.101562 120.257812 232.574219 119.644531 C 233.042969 119.03125 233.484375 118.394531 233.890625 117.738281 C 234.296875 117.082031 234.671875 116.40625 235.015625 115.710938 C 235.355469 115.015625 235.660156 114.308594 235.929688 113.582031 C 236.203125 112.859375 236.4375 112.125 236.632812 111.375 C 236.832031 110.628906 236.992188 109.871094 237.113281 109.109375 C 237.238281 108.34375 237.324219 107.578125 237.371094 106.804688 C 237.417969 106.035156 237.425781 105.261719 237.394531 104.488281 Z M 222.585938 113.34375 C 222.0625 113.90625 221.488281 114.414062 220.867188 114.867188 C 220.246094 115.316406 219.582031 115.703125 218.886719 116.027344 C 218.1875 116.347656 217.464844 116.597656 216.714844 116.777344 C 215.96875 116.953125 215.210938 117.058594 214.441406 117.089844 C 213.671875 117.117188 212.910156 117.070312 212.152344 116.949219 C 211.390625 116.828125 210.652344 116.636719 209.929688 116.371094 C 209.207031 116.101562 208.519531 115.769531 207.867188 115.367188 C 207.210938 114.964844 206.601562 114.5 206.035156 113.976562 C 205.472656 113.457031 204.964844 112.882812 204.511719 112.261719 C 204.0625 111.636719 203.675781 110.976562 203.355469 110.28125 C 203.03125 109.582031 202.78125 108.859375 202.605469 108.109375 C 202.425781 107.363281 202.320312 106.605469 202.292969 105.835938 C 202.261719 105.066406 202.308594 104.304688 202.429688 103.542969 C 202.550781 102.785156 202.742188 102.046875 203.011719 101.324219 C 203.277344 100.601562 203.613281 99.914062 204.015625 99.257812 C 204.417969 98.605469 204.878906 97.996094 205.402344 97.429688 C 205.925781 96.867188 206.496094 96.359375 207.117188 95.90625 C 207.742188 95.457031 208.402344 95.070312 209.101562 94.75 C 209.800781 94.425781 210.523438 94.175781 211.269531 94 C 212.019531 93.820312 212.777344 93.714844 213.542969 93.6875 C 214.3125 93.65625 215.074219 93.703125 215.835938 93.824219 C 216.59375 93.945312 217.335938 94.136719 218.054688 94.40625 C 218.777344 94.671875 219.464844 95.007812 220.121094 95.410156 C 220.777344 95.8125 221.386719 96.273438 221.949219 96.796875 C 222.515625 97.316406 223.023438 97.890625 223.476562 98.511719 C 223.929688 99.132812 224.316406 99.792969 224.640625 100.492188 C 224.960938 101.191406 225.214844 101.914062 225.394531 102.660156 C 225.574219 103.410156 225.675781 104.167969 225.707031 104.9375 C 225.734375 105.707031 225.691406 106.472656 225.566406 107.230469 C 225.445312 107.992188 225.253906 108.730469 224.984375 109.453125 C 224.714844 110.171875 224.378906 110.863281 223.976562 111.515625 C 223.574219 112.171875 223.109375 112.78125 222.585938 113.34375 Z M 222.585938 113.34375 "/><path style=" stroke:none;fill-rule:nonzero;fill:#ffffff;fill-opacity:1;" d="M 177.148438 133.449219 C 176.875 133.175781 176.582031 132.9375 176.261719 132.722656 C 175.941406 132.511719 175.605469 132.332031 175.25 132.183594 C 174.894531 132.039062 174.527344 131.925781 174.152344 131.851562 C 173.777344 131.777344 173.394531 131.742188 173.011719 131.742188 C 172.628906 131.742188 172.246094 131.78125 171.871094 131.855469 C 171.496094 131.929688 171.128906 132.039062 170.773438 132.1875 C 170.417969 132.335938 170.082031 132.515625 169.761719 132.730469 C 169.445312 132.941406 169.148438 133.183594 168.878906 133.457031 C 168.605469 133.726562 168.363281 134.023438 168.148438 134.34375 C 167.9375 134.660156 167.757812 135 167.609375 135.351562 C 167.460938 135.707031 167.351562 136.074219 167.277344 136.449219 C 167.199219 136.824219 167.164062 137.207031 167.164062 137.589844 C 167.164062 137.972656 167.199219 138.355469 167.273438 138.730469 C 167.347656 139.109375 167.457031 139.472656 167.605469 139.828125 C 167.75 140.183594 167.929688 140.519531 168.144531 140.839844 C 168.355469 141.160156 168.597656 141.457031 168.871094 141.726562 L 180.578125 153.4375 C 180.851562 153.707031 181.148438 153.949219 181.464844 154.164062 C 181.785156 154.378906 182.125 154.558594 182.480469 154.703125 C 182.832031 154.851562 183.199219 154.960938 183.578125 155.035156 C 183.953125 155.113281 184.332031 155.148438 184.71875 155.148438 C 185.101562 155.148438 185.484375 155.109375 185.859375 155.035156 C 186.234375 154.960938 186.601562 154.851562 186.957031 154.703125 C 187.3125 154.554688 187.648438 154.375 187.96875 154.160156 C 188.289062 153.949219 188.582031 153.707031 188.855469 153.433594 C 189.125 153.164062 189.371094 152.867188 189.582031 152.546875 C 189.796875 152.226562 189.976562 151.890625 190.125 151.535156 C 190.269531 151.179688 190.382812 150.816406 190.457031 150.4375 C 190.53125 150.0625 190.570312 149.679688 190.570312 149.296875 C 190.570312 148.914062 190.53125 148.53125 190.457031 148.15625 C 190.382812 147.777344 190.273438 147.414062 190.125 147.058594 C 189.980469 146.703125 189.796875 146.363281 189.585938 146.046875 C 189.371094 145.726562 189.128906 145.429688 188.859375 145.160156 Z M 177.148438 133.449219 "/><path style=" stroke:none;fill-rule:nonzero;fill:#ffffff;fill-opacity:1;" d="M 374.890625 4.765625 C 374.867188 4.640625 374.828125 4.523438 374.796875 4.402344 C 374.742188 4.175781 374.671875 3.957031 374.589844 3.742188 C 374.539062 3.605469 374.476562 3.480469 374.417969 3.351562 C 374.324219 3.15625 374.222656 2.964844 374.109375 2.785156 C 374.035156 2.664062 373.960938 2.546875 373.878906 2.433594 C 373.746094 2.257812 373.609375 2.085938 373.457031 1.925781 C 373.367188 1.824219 373.277344 1.722656 373.179688 1.628906 C 373.015625 1.480469 372.847656 1.335938 372.667969 1.207031 C 372.554688 1.121094 372.453125 1.03125 372.335938 0.957031 C 372.308594 0.941406 372.289062 0.917969 372.261719 0.898438 C 372.074219 0.789062 371.882812 0.691406 371.683594 0.601562 C 371.582031 0.554688 371.492188 0.492188 371.386719 0.449219 C 371.058594 0.3125 370.71875 0.207031 370.367188 0.132812 C 370.285156 0.117188 370.199219 0.113281 370.117188 0.0976562 C 369.835938 0.0507812 369.554688 0.0234375 369.273438 0.015625 C 369.230469 0.0117188 369.1875 0 369.144531 0 C 369.066406 0 368.992188 0.0234375 368.914062 0.0234375 C 368.664062 0.0351562 368.421875 0.0585938 368.175781 0.0976562 C 368.042969 0.121094 367.914062 0.144531 367.785156 0.175781 C 367.5625 0.230469 367.34375 0.300781 367.128906 0.378906 C 367.003906 0.425781 366.878906 0.464844 366.761719 0.519531 C 366.535156 0.625 366.320312 0.742188 366.109375 0.871094 C 366.019531 0.929688 365.917969 0.976562 365.832031 1.035156 C 365.550781 1.230469 365.285156 1.445312 365.042969 1.683594 L 365.003906 1.71875 L 329.875 36.84375 C 329.605469 37.117188 329.363281 37.414062 329.152344 37.730469 C 328.9375 38.050781 328.757812 38.390625 328.609375 38.746094 C 328.464844 39.097656 328.355469 39.464844 328.28125 39.84375 C 328.203125 40.21875 328.167969 40.597656 328.167969 40.984375 C 328.167969 41.367188 328.207031 41.746094 328.28125 42.125 C 328.355469 42.5 328.46875 42.867188 328.613281 43.222656 C 328.761719 43.574219 328.941406 43.914062 329.15625 44.230469 C 329.367188 44.550781 329.609375 44.847656 329.882812 45.117188 C 330.152344 45.390625 330.449219 45.632812 330.769531 45.847656 C 331.089844 46.058594 331.425781 46.238281 331.78125 46.386719 C 332.132812 46.535156 332.5 46.644531 332.875 46.71875 C 333.253906 46.796875 333.632812 46.832031 334.019531 46.832031 C 334.402344 46.832031 334.78125 46.796875 335.160156 46.722656 C 335.535156 46.648438 335.902344 46.535156 336.257812 46.390625 C 336.613281 46.242188 336.949219 46.0625 337.269531 45.851562 C 337.589844 45.636719 337.882812 45.394531 338.15625 45.125 L 354.113281 29.167969 C 302.40625 157.191406 214.582031 239.574219 148.007812 286.988281 C 71.0625 341.785156 5.039062 363.0625 4.378906 363.269531 C 4.011719 363.382812 3.660156 363.53125 3.324219 363.71875 C 2.984375 363.902344 2.667969 364.117188 2.375 364.367188 C 2.078125 364.613281 1.808594 364.886719 1.570312 365.1875 C 1.328125 365.488281 1.117188 365.808594 0.941406 366.148438 C 0.761719 366.492188 0.621094 366.847656 0.511719 367.214844 C 0.40625 367.585938 0.335938 367.964844 0.300781 368.347656 C 0.265625 368.730469 0.273438 369.113281 0.3125 369.496094 C 0.355469 369.878906 0.433594 370.253906 0.550781 370.621094 C 0.667969 370.988281 0.816406 371.339844 1.003906 371.675781 C 1.191406 372.015625 1.40625 372.332031 1.652344 372.625 C 1.902344 372.921875 2.175781 373.1875 2.476562 373.429688 C 2.777344 373.667969 3.097656 373.878906 3.441406 374.054688 C 3.78125 374.230469 4.140625 374.375 4.507812 374.480469 C 4.878906 374.585938 5.253906 374.65625 5.640625 374.691406 C 6.023438 374.722656 6.40625 374.71875 6.789062 374.675781 C 7.171875 374.632812 7.546875 374.550781 7.914062 374.433594 C 10.65625 373.566406 76.046875 352.535156 154.445312 296.777344 C 221.738281 248.921875 310.265625 166.058594 363.289062 37.589844 L 363.289062 55.734375 C 363.289062 56.121094 363.328125 56.5 363.402344 56.878906 C 363.476562 57.253906 363.589844 57.621094 363.734375 57.976562 C 363.882812 58.332031 364.0625 58.667969 364.277344 58.988281 C 364.492188 59.308594 364.734375 59.605469 365.003906 59.875 C 365.277344 60.148438 365.574219 60.390625 365.890625 60.605469 C 366.210938 60.816406 366.550781 60.996094 366.90625 61.144531 C 367.257812 61.292969 367.625 61.402344 368.003906 61.476562 C 368.378906 61.554688 368.761719 61.589844 369.144531 61.589844 C 369.53125 61.589844 369.910156 61.554688 370.289062 61.476562 C 370.664062 61.402344 371.03125 61.292969 371.386719 61.144531 C 371.742188 60.996094 372.078125 60.816406 372.398438 60.605469 C 372.71875 60.390625 373.011719 60.148438 373.285156 59.875 C 373.558594 59.605469 373.800781 59.308594 374.011719 58.988281 C 374.226562 58.667969 374.40625 58.332031 374.554688 57.976562 C 374.703125 57.621094 374.8125 57.253906 374.886719 56.878906 C 374.960938 56.5 375 56.121094 375 55.734375 L 375 5.84375 C 374.996094 5.480469 374.960938 5.121094 374.890625 4.765625 Z M 374.890625 4.765625 "/><path style=" stroke:none;fill-rule:nonzero;fill:#ffffff;fill-opacity:1;" d="M 354.421875 116.574219 C 354.394531 116.390625 354.367188 116.207031 354.324219 116.03125 C 354.28125 115.847656 354.21875 115.671875 354.160156 115.496094 C 354.097656 115.3125 354.027344 115.136719 353.949219 114.960938 C 353.871094 114.792969 353.777344 114.632812 353.683594 114.472656 C 353.589844 114.308594 353.496094 114.148438 353.386719 113.996094 C 353.273438 113.84375 353.148438 113.703125 353.023438 113.558594 C 352.898438 113.414062 352.769531 113.277344 352.632812 113.148438 C 352.5 113.023438 352.359375 112.914062 352.214844 112.800781 C 352.046875 112.671875 351.875 112.550781 351.695312 112.441406 C 351.632812 112.398438 351.578125 112.347656 351.511719 112.3125 C 351.425781 112.261719 351.332031 112.238281 351.246094 112.195312 C 351.054688 112.097656 350.859375 112.015625 350.660156 111.941406 C 350.480469 111.875 350.304688 111.820312 350.121094 111.773438 C 349.945312 111.726562 349.765625 111.6875 349.582031 111.660156 C 349.367188 111.625 349.152344 111.601562 348.9375 111.59375 C 348.84375 111.589844 348.75 111.566406 348.652344 111.566406 C 348.578125 111.566406 348.507812 111.585938 348.433594 111.585938 C 348.21875 111.597656 348.003906 111.617188 347.789062 111.652344 C 347.617188 111.679688 347.445312 111.703125 347.277344 111.746094 C 347.085938 111.792969 346.894531 111.851562 346.710938 111.921875 C 346.539062 111.980469 346.367188 112.042969 346.203125 112.117188 C 346.027344 112.199219 345.859375 112.296875 345.6875 112.398438 C 345.535156 112.488281 345.382812 112.578125 345.238281 112.683594 C 345.078125 112.800781 344.925781 112.925781 344.78125 113.058594 C 344.644531 113.179688 344.507812 113.300781 344.382812 113.4375 C 344.257812 113.570312 344.144531 113.714844 344.03125 113.863281 C 343.902344 114.027344 343.785156 114.199219 343.671875 114.375 C 343.632812 114.441406 343.582031 114.492188 343.542969 114.5625 C 327.773438 142.691406 309.742188 169.292969 289.449219 194.359375 C 279 207.265625 267.957031 219.785156 256.609375 231.574219 C 239.566406 249.316406 221.519531 265.972656 202.464844 281.535156 C 191.875 290.210938 180.816406 298.675781 169.601562 306.683594 C 152.238281 319.117188 134.015625 330.828125 115.4375 341.496094 C 115.378906 341.53125 115.332031 341.578125 115.273438 341.613281 C 115.101562 341.722656 114.933594 341.84375 114.773438 341.972656 C 114.625 342.085938 114.480469 342.199219 114.347656 342.324219 C 114.210938 342.449219 114.089844 342.589844 113.96875 342.730469 C 113.839844 342.878906 113.710938 343.019531 113.601562 343.175781 C 113.492188 343.328125 113.40625 343.488281 113.3125 343.648438 C 113.214844 343.8125 113.121094 343.972656 113.042969 344.144531 C 112.964844 344.316406 112.90625 344.496094 112.84375 344.675781 C 112.78125 344.855469 112.71875 345.03125 112.671875 345.21875 C 112.632812 345.390625 112.609375 345.570312 112.582031 345.746094 C 112.550781 345.957031 112.53125 346.164062 112.519531 346.375 C 112.519531 346.441406 112.5 346.503906 112.5 346.574219 L 112.5 368.851562 C 112.5 369.234375 112.539062 369.617188 112.613281 369.992188 C 112.6875 370.371094 112.796875 370.738281 112.945312 371.089844 C 113.09375 371.445312 113.273438 371.785156 113.488281 372.105469 C 113.699219 372.421875 113.941406 372.71875 114.214844 372.992188 C 114.488281 373.261719 114.78125 373.503906 115.101562 373.71875 C 115.421875 373.933594 115.757812 374.113281 116.113281 374.261719 C 116.46875 374.40625 116.835938 374.519531 117.210938 374.59375 C 117.589844 374.667969 117.96875 374.707031 118.355469 374.707031 L 173.007812 374.707031 C 173.394531 374.707031 173.773438 374.667969 174.152344 374.59375 C 174.527344 374.519531 174.894531 374.40625 175.25 374.261719 C 175.605469 374.113281 175.941406 373.933594 176.261719 373.71875 C 176.582031 373.503906 176.878906 373.261719 177.148438 372.992188 C 177.421875 372.71875 177.664062 372.421875 177.878906 372.105469 C 178.089844 371.785156 178.269531 371.445312 178.417969 371.089844 C 178.566406 370.738281 178.675781 370.371094 178.75 369.992188 C 178.828125 369.617188 178.863281 369.234375 178.863281 368.851562 L 178.863281 314.425781 C 186.117188 309.195312 193.296875 303.789062 200.320312 298.257812 L 200.320312 368.851562 C 200.320312 369.234375 200.359375 369.617188 200.433594 369.992188 C 200.507812 370.371094 200.621094 370.738281 200.769531 371.089844 C 200.914062 371.445312 201.09375 371.785156 201.308594 372.105469 C 201.523438 372.421875 201.765625 372.71875 202.039062 372.992188 C 202.308594 373.261719 202.605469 373.503906 202.925781 373.71875 C 203.242188 373.933594 203.582031 374.113281 203.9375 374.261719 C 204.292969 374.40625 204.65625 374.519531 205.035156 374.59375 C 205.410156 374.667969 205.792969 374.707031 206.175781 374.707031 L 260.832031 374.707031 C 261.214844 374.707031 261.597656 374.667969 261.972656 374.59375 C 262.351562 374.519531 262.714844 374.40625 263.070312 374.261719 C 263.425781 374.113281 263.765625 373.933594 264.085938 373.71875 C 264.402344 373.503906 264.699219 373.261719 264.972656 372.992188 C 265.242188 372.71875 265.484375 372.421875 265.699219 372.105469 C 265.914062 371.785156 266.09375 371.445312 266.242188 371.089844 C 266.386719 370.738281 266.5 370.371094 266.574219 369.992188 C 266.648438 369.617188 266.6875 369.234375 266.6875 368.851562 L 266.6875 237.949219 C 273.996094 230.289062 281.167969 222.339844 288.144531 214.183594 L 288.144531 368.851562 C 288.144531 369.234375 288.183594 369.617188 288.257812 369.992188 C 288.332031 370.371094 288.441406 370.738281 288.589844 371.089844 C 288.738281 371.445312 288.917969 371.785156 289.132812 372.105469 C 289.34375 372.421875 289.585938 372.71875 289.859375 372.992188 C 290.132812 373.261719 290.425781 373.503906 290.746094 373.71875 C 291.066406 373.933594 291.402344 374.113281 291.757812 374.261719 C 292.113281 374.40625 292.480469 374.519531 292.855469 374.59375 C 293.234375 374.667969 293.613281 374.707031 294 374.707031 L 348.652344 374.707031 C 349.039062 374.707031 349.417969 374.667969 349.796875 374.59375 C 350.171875 374.519531 350.539062 374.40625 350.894531 374.261719 C 351.25 374.113281 351.585938 373.933594 351.90625 373.71875 C 352.226562 373.503906 352.519531 373.261719 352.792969 372.992188 C 353.066406 372.71875 353.308594 372.421875 353.519531 372.105469 C 353.734375 371.785156 353.914062 371.445312 354.0625 371.089844 C 354.210938 370.738281 354.320312 370.371094 354.394531 369.992188 C 354.46875 369.617188 354.507812 369.234375 354.507812 368.851562 L 354.507812 117.417969 C 354.507812 117.339844 354.488281 117.265625 354.484375 117.1875 C 354.476562 116.984375 354.453125 116.777344 354.421875 116.574219 Z M 167.15625 362.996094 L 124.210938 362.996094 L 124.210938 349.914062 C 138.84375 341.40625 153.226562 332.269531 167.15625 322.660156 Z M 254.976562 362.996094 L 212.03125 362.996094 L 212.03125 288.785156 C 226.933594 276.503906 241.3125 263.457031 254.976562 249.867188 Z M 342.796875 362.996094 L 299.855469 362.996094 L 299.855469 200.074219 C 315.476562 180.625 329.792969 160.257812 342.796875 138.972656 Z M 342.796875 362.996094 "/></g></svg>