<svg xmlns="http://www.w3.org/2000/svg" xmlns:xlink="http://www.w3.org/1999/xlink" width="500" zoomAndPan="magnify" viewBox="0 0 375 374.999991" height="500" preserveAspectRatio="xMidYMid meet" version="1.2"><defs><clipPath id="2bf9d18ece"><path d="M 9.84375 0 L 364 0 L 364 375 L 9.84375 375 Z M 9.84375 0 "/></clipPath></defs><g id="9ffb7c45ed"><g clip-rule="nonzero" clip-path="url(#2bf9d18ece)"><path style=" stroke:none;fill-rule:evenodd;fill:#ffffff;fill-opacity:1;" d="M 67.109375 139.578125 C 62.648438 138.242188 58.355469 136.433594 54.277344 134.195312 L 45.707031 137.992188 C 43.421875 139.003906 40.746094 138.507812 38.980469 136.738281 L 25.566406 123.324219 C 23.796875 121.554688 23.300781 118.878906 24.316406 116.589844 C 24.316406 116.589844 28.121094 108.035156 28.121094 108.035156 C 25.789062 103.800781 23.933594 99.320312 22.578125 94.675781 L 13.835938 91.3125 C 11.5 90.414062 9.960938 88.171875 9.960938 85.667969 L 9.960938 66.695312 C 9.960938 64.191406 11.5 61.949219 13.835938 61.050781 C 13.835938 61.050781 22.574219 57.6875 22.574219 57.6875 C 23.933594 53.035156 25.789062 48.554688 28.125 44.3125 L 24.316406 35.753906 C 23.300781 33.464844 23.796875 30.789062 25.566406 29.019531 L 38.980469 15.605469 C 40.75 13.835938 43.425781 13.339844 45.714844 14.355469 C 45.714844 14.355469 54.277344 18.160156 54.273438 18.164062 C 58.515625 15.828125 62.992188 13.972656 67.632812 12.625 L 71.011719 3.871094 C 71.914062 1.539062 74.15625 0 76.65625 0 L 95.628906 0 C 98.132812 0 100.378906 1.542969 101.277344 3.878906 L 104.636719 12.628906 C 109.277344 13.976562 113.753906 15.828125 117.992188 18.160156 L 126.550781 14.355469 C 128.839844 13.339844 131.519531 13.835938 133.285156 15.605469 L 146.699219 29.019531 C 148.46875 30.785156 148.964844 33.460938 147.953125 35.746094 C 147.953125 35.746094 144.160156 44.308594 144.160156 44.308594 C 146.496094 48.550781 148.351562 53.035156 149.699219 57.691406 L 158.429688 61.050781 C 160.765625 61.949219 162.304688 64.191406 162.304688 66.695312 L 162.304688 70.125 L 240.585938 70.125 C 242.191406 70.125 243.730469 70.761719 244.863281 71.894531 L 277.226562 104.257812 C 278.363281 105.394531 279 106.933594 279 108.535156 L 279 138.335938 C 302.746094 114.585938 326.011719 91.320312 326.003906 91.328125 C 333.589844 83.695312 346.019531 83.691406 353.613281 91.308594 L 357.441406 95.105469 C 357.453125 95.117188 357.464844 95.125 357.472656 95.136719 C 365.050781 102.757812 365.035156 115.179688 357.460938 122.753906 L 279 201.21875 L 279 238.503906 C 313.9375 241.566406 341.332031 270.882812 341.332031 306.621094 C 341.332031 344.394531 310.726562 375 272.949219 375 C 247.777344 375 225.789062 361.40625 213.917969 341.160156 L 107.585938 341.160156 L 107.585938 344.164062 C 107.585938 349.964844 104.082031 354.984375 99.101562 357.226562 L 99.101562 360.691406 C 99.101562 368.542969 92.660156 375 84.808594 375 L 74.074219 375 C 66.226562 375 59.765625 368.539062 59.765625 360.691406 L 59.765625 357.222656 C 54.78125 354.980469 51.296875 349.964844 51.296875 344.164062 L 51.296875 340.605469 C 46.425781 338.316406 43.035156 333.359375 43.035156 327.640625 L 43.035156 319.558594 C 41.636719 296.207031 34.941406 287.425781 29.847656 278.414062 C 25.785156 271.222656 22.558594 263.914062 22.558594 251.238281 C 22.558594 224.054688 41.625 201.328125 67.109375 195.695312 Z M 162.304688 82.21875 L 162.304688 85.667969 C 162.304688 88.171875 160.765625 90.414062 158.429688 91.3125 C 158.429688 91.3125 149.695312 94.675781 149.695312 94.675781 C 148.34375 99.316406 146.484375 103.789062 144.15625 108.027344 L 147.425781 115.40625 L 198.816406 115.40625 C 202.152344 115.40625 204.863281 118.117188 204.863281 121.457031 C 204.863281 124.792969 202.152344 127.503906 198.816406 127.503906 L 142.523438 127.503906 L 133.285156 136.738281 C 131.519531 138.507812 128.847656 139.003906 126.5625 137.992188 C 126.5625 137.992188 118 134.199219 118 134.199219 C 113.765625 136.535156 109.28125 138.386719 104.636719 139.734375 L 101.273438 148.46875 C 100.375 150.804688 98.132812 152.34375 95.628906 152.34375 L 79.207031 152.34375 L 79.207031 194.355469 C 79.285156 194.355469 79.363281 194.355469 79.441406 194.355469 C 99.292969 194.355469 116.773438 204.527344 126.949219 219.941406 L 219.671875 219.941406 L 225.777344 197.183594 L 113.933594 197.183594 C 110.597656 197.183594 107.886719 194.472656 107.886719 191.136719 C 107.886719 187.796875 110.597656 185.089844 113.933594 185.089844 L 232.203125 185.089844 C 232.214844 185.089844 232.230469 185.089844 232.238281 185.09375 C 238.253906 179.078125 251.863281 165.46875 266.902344 150.429688 L 266.902344 114.585938 L 240.585938 114.585938 C 237.246094 114.585938 234.539062 111.878906 234.539062 108.535156 L 234.539062 82.21875 Z M 258.347656 102.488281 C 254.652344 98.789062 250.332031 94.472656 246.636719 90.773438 C 246.636719 96.839844 246.636719 102.488281 246.636719 102.488281 Z M 266.902344 213.3125 L 260.421875 219.796875 C 259.671875 220.542969 258.742188 221.082031 257.71875 221.355469 L 238.222656 226.585938 C 237.921875 229.644531 235.339844 232.039062 232.203125 232.039062 L 133 232.039062 C 135.152344 238.035156 136.324219 244.5 136.324219 251.238281 C 136.324219 252.472656 136.292969 253.65625 136.234375 254.796875 L 228.332031 254.796875 C 238.875 245.710938 252.222656 239.789062 266.902344 238.503906 Z M 236.359375 204.257812 L 233.371094 215.402344 L 244.515625 212.414062 Z M 256.160156 207.007812 L 333.507812 129.660156 L 319.117188 115.265625 L 241.765625 192.617188 Z M 342.03125 121.136719 L 348.9375 114.230469 C 351.839844 111.328125 351.828125 106.570312 348.933594 103.644531 L 345.113281 99.855469 C 345.101562 99.847656 345.09375 99.835938 345.082031 99.824219 C 342.191406 96.914062 337.449219 96.914062 334.558594 99.824219 C 334.550781 99.828125 334.546875 99.832031 334.542969 99.839844 L 327.640625 106.742188 Z M 208.335938 329.0625 C 205.898438 322.03125 204.570312 314.480469 204.570312 306.621094 C 204.570312 304.980469 204.628906 303.355469 204.742188 301.746094 L 118.429688 301.746094 C 117.195312 306.636719 116.261719 312.484375 115.835938 319.730469 L 115.828125 327.640625 C 115.828125 328.121094 115.804688 328.59375 115.757812 329.0625 Z M 206.691406 289.648438 C 208.8125 281.351562 212.445312 273.660156 217.285156 266.890625 L 134.199219 266.890625 C 132.886719 271.199219 131.066406 274.820312 129.035156 278.414062 C 127.058594 281.90625 124.84375 285.363281 122.792969 289.648438 Z M 87.003906 358.476562 L 71.859375 358.476562 L 71.859375 360.691406 C 71.859375 361.902344 72.859375 362.902344 74.074219 362.902344 L 84.808594 362.902344 C 86.019531 362.902344 87.003906 361.898438 87.003906 360.691406 Z M 63.394531 341.953125 L 63.394531 344.164062 C 63.394531 345.382812 64.390625 346.378906 65.609375 346.378906 L 93.273438 346.378906 C 94.488281 346.378906 95.488281 345.382812 95.488281 344.164062 L 95.488281 341.953125 Z M 55.132812 325.425781 L 55.132812 327.640625 C 55.132812 328.859375 56.128906 329.855469 57.347656 329.855469 L 101.535156 329.855469 C 102.746094 329.855469 103.734375 328.855469 103.734375 327.636719 L 103.734375 325.425781 Z M 272.949219 250.335938 C 241.859375 250.335938 216.667969 275.527344 216.667969 306.621094 C 216.667969 337.710938 241.859375 362.902344 272.949219 362.902344 C 304.042969 362.902344 329.234375 337.710938 329.234375 306.621094 C 329.234375 275.527344 304.042969 250.335938 272.949219 250.335938 Z M 233.570312 275.792969 C 231.210938 273.433594 231.210938 269.601562 233.570312 267.238281 C 235.929688 264.878906 239.761719 264.878906 242.125 267.238281 L 245.933594 271.050781 C 248.296875 273.410156 248.296875 277.246094 245.933594 279.605469 C 243.574219 281.964844 239.742188 281.964844 237.382812 279.605469 Z M 266.902344 283.042969 C 266.902344 279.703125 269.613281 276.992188 272.949219 276.992188 C 276.289062 276.992188 279 279.703125 279 283.042969 L 279 303.128906 L 291.730469 310.476562 C 294.621094 312.144531 295.613281 315.847656 293.945312 318.738281 C 292.277344 321.628906 288.574219 322.621094 285.683594 320.953125 L 269.925781 311.859375 C 268.054688 310.777344 266.902344 308.78125 266.902344 306.621094 Z M 303.777344 267.238281 C 306.140625 264.878906 309.972656 264.878906 312.332031 267.238281 C 314.691406 269.601562 314.691406 273.433594 312.332031 275.792969 L 308.519531 279.605469 C 306.160156 281.964844 302.328125 281.964844 299.964844 279.605469 C 297.605469 277.246094 297.605469 273.410156 299.964844 271.050781 Z M 266.902344 256.996094 C 266.902344 253.65625 269.613281 250.945312 272.949219 250.945312 C 276.289062 250.945312 279 253.65625 279 256.996094 L 279 262.367188 C 279 265.707031 276.289062 268.417969 272.949219 268.417969 C 269.613281 268.417969 266.902344 265.707031 266.902344 262.367188 Z M 242.125 346 C 239.761719 348.363281 235.929688 348.363281 233.570312 346 C 231.210938 343.640625 231.210938 339.808594 233.570312 337.449219 L 237.382812 333.636719 C 239.742188 331.277344 243.574219 331.277344 245.933594 333.636719 C 248.296875 335.996094 248.296875 339.828125 245.933594 342.191406 Z M 322.59375 300.574219 C 325.933594 300.574219 328.644531 303.28125 328.644531 306.621094 C 328.644531 309.957031 325.933594 312.667969 322.59375 312.667969 L 317.203125 312.667969 C 313.863281 312.667969 311.15625 309.957031 311.15625 306.621094 C 311.15625 303.28125 313.863281 300.574219 317.203125 300.574219 Z M 312.332031 337.449219 C 314.691406 339.808594 314.691406 343.640625 312.332031 346 C 309.972656 348.363281 306.140625 348.363281 303.777344 346 L 299.964844 342.191406 C 297.605469 339.828125 297.605469 335.996094 299.964844 333.636719 C 302.328125 331.277344 306.160156 331.277344 308.519531 333.636719 Z M 279 356.246094 C 279 359.585938 276.289062 362.292969 272.949219 362.292969 C 269.613281 362.292969 266.902344 359.585938 266.902344 356.246094 L 266.902344 350.871094 C 266.902344 347.535156 269.613281 344.824219 272.949219 344.824219 C 276.289062 344.824219 279 347.535156 279 350.871094 Z M 223.324219 312.667969 C 219.988281 312.667969 217.277344 309.957031 217.277344 306.621094 C 217.277344 303.28125 219.988281 300.574219 223.324219 300.574219 L 228.699219 300.574219 C 232.035156 300.574219 234.746094 303.28125 234.746094 306.621094 C 234.746094 309.957031 232.035156 312.667969 228.699219 312.667969 Z M 94.453125 19.855469 C 94.453125 19.855469 91.472656 12.097656 91.472656 12.097656 L 80.804688 12.097656 L 77.808594 19.863281 C 77.089844 21.722656 75.503906 23.109375 73.5625 23.570312 C 68 24.890625 62.695312 27.089844 57.816406 30.09375 C 56.117188 31.140625 54.011719 31.28125 52.1875 30.472656 L 44.59375 27.097656 L 37.058594 34.632812 L 40.433594 42.226562 C 41.246094 44.050781 41.101562 46.15625 40.054688 47.855469 C 37.046875 52.738281 34.847656 58.050781 33.507812 63.636719 C 33.042969 65.570312 31.65625 67.152344 29.800781 67.867188 L 22.058594 70.847656 L 22.058594 81.515625 L 29.800781 84.496094 C 31.65625 85.207031 33.042969 86.789062 33.507812 88.722656 C 34.847656 94.289062 37.042969 99.617188 40.050781 104.480469 C 41.101562 106.179688 41.246094 108.292969 40.433594 110.117188 L 37.058594 117.710938 L 44.601562 125.253906 L 52.195312 121.886719 C 54.011719 121.082031 56.109375 121.222656 57.804688 122.261719 C 62.683594 125.25 67.996094 127.46875 73.578125 128.792969 C 75.523438 129.253906 77.113281 130.644531 77.828125 132.507812 L 80.808594 140.246094 L 91.476562 140.246094 L 94.457031 132.507812 C 95.171875 130.644531 96.761719 129.253906 98.703125 128.792969 C 104.261719 127.472656 109.582031 125.277344 114.441406 122.273438 C 116.140625 121.222656 118.246094 121.078125 120.070312 121.886719 L 127.667969 125.253906 L 135.214844 117.707031 L 131.847656 110.109375 C 131.042969 108.292969 131.183594 106.195312 132.222656 104.5 C 135.210938 99.621094 137.433594 94.308594 138.753906 88.742188 C 139.21875 86.800781 140.605469 85.210938 142.46875 84.496094 L 150.207031 81.515625 L 150.207031 70.847656 L 142.46875 67.867188 C 140.605469 67.152344 139.214844 65.5625 138.753906 63.617188 C 137.433594 58.039062 135.234375 52.734375 132.230469 47.855469 C 131.183594 46.160156 131.042969 44.054688 131.847656 42.234375 L 135.214844 34.640625 L 127.671875 27.097656 L 120.078125 30.472656 C 118.253906 31.28125 116.148438 31.140625 114.449219 30.09375 C 109.574219 27.089844 104.265625 24.890625 98.703125 23.570312 C 96.761719 23.109375 95.171875 21.71875 94.453125 19.855469 Z M 86.132812 37.03125 C 107.761719 37.03125 125.292969 54.546875 125.292969 76.171875 C 125.292969 97.796875 107.757812 115.332031 86.132812 115.332031 C 64.507812 115.332031 46.992188 97.796875 46.992188 76.171875 C 46.992188 54.542969 64.507812 37.03125 86.132812 37.03125 Z M 86.132812 49.125 C 71.191406 49.125 59.089844 61.230469 59.089844 76.171875 C 59.089844 91.117188 71.1875 103.238281 86.132812 103.238281 C 101.078125 103.238281 113.199219 91.117188 113.199219 76.171875 C 113.199219 61.226562 101.078125 49.125 86.132812 49.125 Z M 94.261719 313.328125 L 104.207031 313.328125 C 106.042969 294.902344 111.03125 285.34375 115.71875 277.257812 C 120.035156 269.808594 124.226562 263.898438 124.226562 251.238281 C 124.226562 226.503906 104.175781 206.453125 79.441406 206.453125 C 54.707031 206.453125 34.65625 226.503906 34.65625 251.238281 C 34.65625 263.898438 38.84375 269.808594 43.164062 277.257812 C 47.851562 285.34375 52.835938 294.902344 54.675781 313.328125 L 64.621094 313.328125 L 64.621094 269.464844 L 58.84375 269.464844 C 49.027344 269.464844 40.992188 261.425781 40.992188 251.613281 C 40.992188 241.773438 49.03125 233.742188 58.84375 233.742188 C 68.683594 233.742188 76.714844 241.773438 76.714844 251.613281 L 76.714844 257.367188 L 82.164062 257.367188 L 82.164062 251.613281 C 82.164062 241.773438 90.199219 233.742188 100.035156 233.742188 C 109.851562 233.742188 117.890625 241.773438 117.890625 251.613281 C 117.890625 261.425781 109.851562 269.464844 100.035156 269.464844 L 94.261719 269.464844 Z M 76.714844 313.328125 L 82.164062 313.328125 L 82.164062 269.464844 L 76.714844 269.464844 Z M 94.261719 257.367188 L 100.035156 257.367188 C 103.203125 257.367188 105.792969 254.777344 105.792969 251.613281 C 105.792969 248.4375 103.203125 245.835938 100.035156 245.835938 C 96.859375 245.835938 94.261719 248.433594 94.261719 251.613281 Z M 64.621094 257.367188 L 64.621094 251.613281 C 64.621094 248.433594 62.023438 245.835938 58.84375 245.835938 C 55.675781 245.835938 53.089844 248.4375 53.089844 251.613281 C 53.089844 254.777344 55.679688 257.367188 58.84375 257.367188 Z M 113.933594 162.359375 C 110.597656 162.359375 107.886719 159.648438 107.886719 156.308594 C 107.886719 152.972656 110.597656 150.261719 113.933594 150.261719 L 232.203125 150.261719 C 235.539062 150.261719 238.25 152.972656 238.25 156.308594 C 238.25 159.648438 235.539062 162.359375 232.203125 162.359375 Z M 113.933594 162.359375 "/></g></g></svg>